<?xml version="1.0" encoding="utf-8"?>
<!-- Generator: Adobe Illustrator 24.0.0, SVG Export Plug-In . SVG Version: 6.00 Build 0)  -->
<svg version="1.1" id="Layer_1" xmlns="http://www.w3.org/2000/svg" xmlns:xlink="http://www.w3.org/1999/xlink" x="0px" y="0px"
	 width="366px" height="366px" viewBox="0 0 366 366" enable-background="new 0 0 366 366" xml:space="preserve">
<g>
	<path fill="#20505B" d="M101.8,158.8l159.4,53.5c-14.8,44-62.4,67.7-106.4,53C110.8,250.5,87.1,202.8,101.8,158.8L101.8,158.8z"/>
	<path display="none" fill="#154047" d="M241.9,186.3c0,32.9-26.7,59.6-59.6,59.6s-59.6-26.7-59.6-59.6s26.7-59.6,59.6-59.6
		C215.2,126.7,241.9,153.4,241.9,186.3L241.9,186.3z"/>
	<path display="none" fill="#092A2D" d="M214.9,186.3c0,18-14.6,32.6-32.6,32.6s-32.6-14.6-32.6-32.6s14.6-32.6,32.6-32.6
		S214.9,168.2,214.9,186.3L214.9,186.3z"/>
	<path fill="#20505B" d="M265.4,179.9L118,130.5c21.7-24.9,57-35.8,90.2-24.6C241.5,117,263,146.9,265.4,179.9L265.4,179.9z"/>
	<path fill="#FCBC1D" d="M261.1,212.3l31.6,10.6c-20.6,61.5-87.1,94.6-148.6,74s-94.6-87.1-74-148.6l31.6,10.6
		c-14.8,44,9,91.7,53,106.4S246.5,256.3,261.1,212.3L261.1,212.3z"/>
	<path fill="#EAC16E" d="M354.6,233.3c2.6,1.3,3.2,3.8,2.5,6c-0.8,2.3-3.2,4.2-6.2,3.1l-58.3-19.5L261,212.3l-159.4-53.5l-31.6-10.6
		l0,0L12,128.7c-5.8-1.9-3.5-10.7,2.5-9.5c14.1,2.8,28.4,2,41.8-2.1S82,105.7,92.2,95.6c32.9-32.7,82.6-46,129.6-30.2
		c47,15.7,78.6,56.3,85.2,102.2C311,196.1,328.8,220.8,354.6,233.3L354.6,233.3z M118,130.5l147.3,49.4c-2.2-33-23.9-62.9-57.1-74
		C175,94.7,139.7,105.5,118,130.5L118,130.5z"/>
	<g>
		<g>
			<defs>
				<rect id="SVGID_1_" x="4.6" y="27.1" width="356.9" height="311.8"/>
			</defs>
			<clipPath id="SVGID_2_">
				<use xlink:href="#SVGID_1_"  overflow="visible"/>
			</clipPath>
			<path display="none" clip-path="url(#SVGID_2_)" fill="#333333" d="M181.5,319.6c-14.2,0-28.5-2.3-42.5-6.9l-0.2-0.1
				c-15.7-5.3-30.1-13.3-42.8-23.8c-1.7-1.4-1.9-3.9-0.5-5.6s3.9-1.9,5.6-0.5c11.9,9.9,25.4,17.4,40.2,22.3h0.1
				c47.9,16,100.6,1.9,134.3-35.9c1.5-1.7,4-1.8,5.6-0.3c1.7,1.5,1.8,4,0.3,5.6C255.8,303.7,219.2,319.6,181.5,319.6L181.5,319.6z
				 M84.1,275.6c-1.1,0-2.2-0.5-3-1.4c-25.6-29.1-37.5-67.7-32.5-106c0.3-2.2,2.3-3.7,4.5-3.5c2.2,0.3,3.7,2.3,3.5,4.5
				c-4.7,36,6.5,72.3,30.6,99.7c1.5,1.7,1.3,4.2-0.4,5.6C86,275.3,85,275.6,84.1,275.6L84.1,275.6z M290,261.2
				c-0.8,0-1.5-0.2-2.2-0.7c-1.8-1.2-2.3-3.7-1.1-5.5c2.7-4.1,5.2-8.4,7.4-12.8c1-2,3.4-2.8,5.4-1.8s2.8,3.4,1.8,5.4
				c-2.4,4.7-5,9.3-7.9,13.6C292.5,260.6,291.2,261.2,290,261.2L290,261.2z M345,216.1c-0.9,0-1.8-0.3-2.6-0.9
				c-14.6-12.3-24.2-29.6-27-48.8c-0.3-2.2,1.2-4.2,3.4-4.5c2.2-0.3,4.2,1.2,4.5,3.4c2.5,17.2,11.1,32.7,24.2,43.8
				c1.7,1.4,1.9,3.9,0.5,5.6C347.4,215.6,346.2,216.1,345,216.1L345,216.1z M315,149.6c-1.7,0-3.3-1.1-3.8-2.9
				c-5.2-17.3-13.6-33.1-25-47c-8.5-10.4-18.5-19.4-29.6-26.9c-1.8-1.2-2.3-3.7-1.1-5.5c1.2-1.8,3.7-2.3,5.5-1.1
				c11.8,7.9,22.4,17.5,31.4,28.5c12.1,14.8,21,31.5,26.5,49.8c0.6,2.1-0.6,4.3-2.7,5C315.9,149.6,315.5,149.6,315,149.6L315,149.6z
				 M52.5,109c-1.7,0-3.3-1.1-3.8-2.8c-0.6-2.1,0.5-4.3,2.7-5c5.4-1.6,10.7-4,15.6-6.9c1.9-1.1,4.4-0.5,5.5,1.4s0.5,4.4-1.4,5.5
				c-5.5,3.3-11.3,5.9-17.3,7.7C53.3,108.9,52.9,109,52.5,109L52.5,109z M83.3,90.6c-1,0-2.1-0.4-2.8-1.2c-1.6-1.6-1.5-4.1,0-5.7
				c18.5-18.4,41.8-31.4,67.3-37.6c26.1-6.3,53.5-5.2,79.1,3.4l0.2,0.1c4.6,1.5,9.2,3.3,13.6,5.3c2,0.9,2.9,3.3,2,5.3
				s-3.3,2.9-5.3,2c-4.2-1.9-8.5-3.6-12.8-5l-0.2-0.1c-24.2-8.1-50-9.2-74.7-3.2c-24.1,5.8-46,18.1-63.6,35.5
				C85.3,90.2,84.3,90.6,83.3,90.6L83.3,90.6z"/>
		</g>
		<g>
			<defs>
				<rect id="SVGID_3_" x="4.6" y="27.1" width="356.9" height="311.8"/>
			</defs>
			<clipPath id="SVGID_4_">
				<use xlink:href="#SVGID_3_"  overflow="visible"/>
			</clipPath>
			<path clip-path="url(#SVGID_4_)" fill="#333333" d="M181.4,306.9c-12.8,0-25.7-2-38.5-6.3c-62.2-20.8-96.4-87.5-77.7-149.8
				l-54.5-18.3c-4.6-1.5-7-6-5.8-10.7s5.6-7.4,10.3-6.5c13.2,2.6,27,1.9,39.8-2s24.7-11,34.3-20.5c16.9-16.8,38.2-28.7,61.4-34.3
				c23.9-5.8,48.9-4.7,72.3,3.1s44,22,59.6,41.1c15.1,18.5,24.9,40.8,28.3,64.4c3.9,27.3,20.9,50.8,45.5,62.7c4.2,2,6,6.5,4.6,10.8
				c-0.8,2.3-2.4,4.2-4.5,5.3c-2.1,1-4.5,1.2-6.8,0.4l-25.3-8.5c-2.1-0.7-3.2-3-2.5-5.1s3-3.2,5.1-2.5l25.4,8.5
				c0.5,0.2,0.6,0.1,0.7,0c0.2-0.1,0.4-0.3,0.5-0.6c0.2-0.7-0.2-0.9-0.5-1.1c-27-13.1-45.7-38.8-50-68.7
				c-3.2-22.2-12.4-43.1-26.6-60.5c-14.6-17.9-33.9-31.2-55.9-38.5c-22-7.4-45.4-8.4-67.8-3C131,71.6,111,82.7,95.1,98.5
				c-10.6,10.4-23.6,18.2-37.7,22.4c-14.1,4.3-29.2,5.1-43.7,2.2c-0.3-0.1-0.8-0.2-1.1,0.7c-0.2,0.8,0.3,1,0.6,1.1l58.3,19.5
				c2.1,0.7,3.2,2.9,2.6,5v0.1C54.2,208.8,86.2,273.2,145.5,293c59.3,19.9,123.7-12.2,143.5-71.4c0.7-2.1,3-3.2,5.1-2.5l9.7,3.3
				c2.1,0.7,3.2,3,2.5,5.1s-3,3.2-5.1,2.5l-6-2C277.1,276.4,230.9,306.9,181.4,306.9L181.4,306.9z"/>
		</g>
	</g>
	<path fill="#333333" d="M181.6,273.7c-9.4,0-18.9-1.5-28.1-4.6c-22.3-7.5-40.4-23.2-50.8-44.2C92.2,203.8,90.6,180,98,157.7
		c0.7-2.1,3-3.2,5.1-2.5s3.2,3,2.5,5.1c-14,41.9,8.6,87.3,50.4,101.4c20.3,6.8,42,5.3,61.1-4.2s33.4-25.9,40.2-46.2
		c0.7-2.1,3-3.2,5.1-2.5s3.2,3,2.5,5.1c-7.5,22.3-23.2,40.4-44.2,50.8C208.4,270.5,195,273.7,181.6,273.7L181.6,273.7z"/>
	<path fill="#333333" d="M265.4,183.9c-0.4,0-0.9-0.1-1.3-0.2l-147.3-49.4c-1.3-0.4-2.2-1.5-2.6-2.7c-0.3-1.3,0-2.7,0.8-3.7
		c23.5-27.1,60.6-37.2,94.5-25.8c21.6,7.2,39.3,22.3,49.9,42.4c1,2,0.3,4.4-1.7,5.4c-2,1-4.4,0.3-5.4-1.7
		c-9.6-18.3-25.7-32-45.3-38.6c-28.9-9.7-60.4-2.2-81.8,19l135.5,45.5c-0.7-4.6-1.7-9.1-3.2-13.6c-0.7-2.1,0.5-4.4,2.6-5.1
		s4.4,0.5,5.1,2.6c2.3,7,3.7,14.2,4.2,21.6c0.1,1.3-0.5,2.6-1.5,3.4C267,183.6,266.1,183.9,265.4,183.9L265.4,183.9z"/>
	<path fill="#333333" d="M292.8,226.9c-0.4,0-0.9-0.1-1.3-0.2l-71.7-24c-2.1-0.7-3.2-3-2.5-5.1s3-3.2,5.1-2.5l71.7,24
		c2.1,0.7,3.2,3,2.5,5.1C296,225.8,294.5,226.9,292.8,226.9L292.8,226.9z"/>
	<path fill="#333333" d="M202.7,196.7c-0.4,0-0.8-0.1-1.3-0.2l-145.9-49c-2.1-0.7-3.2-3-2.5-5.1c0.7-2.1,3-3.2,5.1-2.5L204,188.8
		c2.1,0.7,3.2,3,2.5,5.1C205.9,195.6,204.3,196.7,202.7,196.7L202.7,196.7z"/>
	<path fill="#FFFFFF" d="M307.2,215.4c-0.4,0-0.9-0.1-1.3-0.2l-32.5-10.9c-2.1-0.7-3.2-3-2.5-5.1s3-3.2,5.1-2.5l22.4,7.5
		c-4-7.7-7-15.9-9-24.4c-0.5-2.1,0.8-4.3,3-4.8s4.3,0.8,4.8,3c2.6,11.2,7.1,21.7,13.4,31.3c0.9,1.4,0.9,3.3-0.2,4.6
		C309.6,214.9,308.5,215.4,307.2,215.4L307.2,215.4z"/>
	<path fill="#FFFFFF" d="M290.5,167.5c-1.9,0-3.5-1.3-3.9-3.2c-3.7-18.5-12.2-35.7-24.6-49.7c-12.4-14.1-28.5-24.7-46.4-30.7h-0.1
		c-26-8.7-53.9-7.2-78.7,4.1c-2,0.9-4.4,0-5.3-2c-0.9-2,0-4.4,2-5.3c26.6-12.2,56.6-13.8,84.5-4.5h0.1c19.3,6.5,36.6,17.9,49.9,33
		c13.3,15.1,22.4,33.5,26.4,53.4c0.4,2.2-1,4.3-3.1,4.7C291,167.4,290.8,167.5,290.5,167.5L290.5,167.5z"/>
	<path fill="#FFFFFF" d="M80.9,127.3c-1.4,0-2.8-0.7-3.5-2c-1.1-1.9-0.4-4.4,1.5-5.4c7.8-4.4,14.9-9.8,21.3-16.1
		c5.7-5.6,12-10.7,18.6-15c1.9-1.2,4.3-0.7,5.5,1.2c1.2,1.9,0.7,4.3-1.2,5.5c-6.2,4-12.1,8.8-17.4,14c-6.9,6.8-14.6,12.7-23,17.4
		C82.3,127.2,81.6,127.3,80.9,127.3L80.9,127.3z"/>
	<path fill="#FFFFFF" d="M102,146.6c-0.4,0-0.9-0.1-1.3-0.2l-36.4-12.3c-2.1-0.7-3.2-3-2.5-5.1c0.7-2.1,3-3.2,5.1-2.5l36.4,12.3
		c2.1,0.7,3.2,3,2.5,5.1C105.3,145.5,103.7,146.6,102,146.6L102,146.6z"/>
	<path fill="#FFFFFF" d="M125.5,154.5c-0.4,0-0.9-0.1-1.3-0.2l-10.4-3.5c-2.1-0.7-3.2-3-2.5-5.1c0.7-2.1,3-3.2,5.1-2.5l10.4,3.5
		c2.1,0.7,3.2,3,2.5,5.1C128.7,153.4,127.2,154.5,125.5,154.5L125.5,154.5z"/>
	<path fill="#FFFFFF" d="M253.3,197.3c-0.4,0-0.9-0.1-1.3-0.2l-112.1-37.6c-2.1-0.7-3.2-3-2.5-5.1c0.7-2.1,3-3.2,5.1-2.5l112.1,37.6
		c2.1,0.7,3.2,3,2.5,5.1C256.5,196.3,255,197.3,253.3,197.3L253.3,197.3z"/>
	<path fill="#FFFFFF" d="M107.1,255.7c-1.1,0-2.2-0.5-3-1.4c-19.7-22.3-29-51.9-25.4-81.3c0.3-2.2,2.3-3.8,4.5-3.5s3.8,2.3,3.5,4.5
		c-3.3,27.1,5.2,54.4,23.5,75c1.5,1.7,1.3,4.2-0.3,5.6C109,255.3,108.1,255.7,107.1,255.7L107.1,255.7z"/>
	<path fill="#FFFFFF" d="M126.6,272.6c-0.8,0-1.5-0.2-2.2-0.7c-1.9-1.2-3.7-2.6-5.5-3.9s-2.1-3.8-0.8-5.6c1.3-1.8,3.8-2.1,5.6-0.8
		c1.6,1.3,3.4,2.5,5.1,3.6c1.8,1.2,2.3,3.7,1.1,5.5C129.1,271.9,127.9,272.6,126.6,272.6L126.6,272.6z"/>
	<path fill="#FFFFFF" d="M181.5,289.1c-11,0-22-1.8-32.8-5.3h-0.1c-3-1-5.9-2.1-8.7-3.4c-2-0.9-2.9-3.2-2.1-5.3
		c0.9-2,3.2-2.9,5.3-2.1c2.6,1.1,5.3,2.2,8,3.1h0.1c33.6,11.2,70.5,3,96.3-21.6c1.6-1.5,4.1-1.5,5.7,0.1c1.5,1.6,1.5,4.1-0.1,5.7
		C233.4,279.1,207.7,289.1,181.5,289.1L181.5,289.1z"/>
	<path fill="#FFFFFF" d="M261.9,248.2c-0.8,0-1.6-0.3-2.4-0.8c-1.8-1.3-2.2-3.8-0.9-5.6c2.3-3.1,4.3-6.3,6.2-9.7
		c1.1-1.9,3.5-2.6,5.4-1.5s2.6,3.5,1.5,5.4c-2,3.6-4.3,7.1-6.7,10.5C264.4,247.7,263.1,248.2,261.9,248.2L261.9,248.2z"/>
	<path fill="#333333" d="M313.9,234c-0.3,0-0.5,0-0.8-0.1s-0.5-0.1-0.7-0.2c-0.2-0.1-0.5-0.2-0.7-0.4c-0.2-0.1-0.4-0.3-0.6-0.5
		c-0.7-0.7-1.2-1.8-1.2-2.8c0-0.3,0-0.5,0.1-0.8c0-0.3,0.1-0.5,0.2-0.8c0.1-0.2,0.2-0.5,0.4-0.7c0.1-0.2,0.3-0.4,0.5-0.6
		c0.2-0.2,0.4-0.4,0.6-0.5c0.2-0.2,0.5-0.3,0.7-0.4c0.2-0.1,0.5-0.2,0.7-0.2c0.5-0.1,1.1-0.1,1.6,0c0.3,0,0.5,0.1,0.7,0.2
		c0.2,0.1,0.5,0.2,0.7,0.4c0.2,0.1,0.4,0.3,0.6,0.5s0.4,0.4,0.5,0.6c0.1,0.2,0.3,0.5,0.4,0.7s0.2,0.5,0.2,0.8
		c0.1,0.3,0.1,0.5,0.1,0.8c0,1.1-0.4,2.1-1.2,2.8C316,233.6,315,234,313.9,234L313.9,234z"/>
	<path fill="#FFFFFF" d="M313.5,217.5c-0.4,0-0.8-0.1-1.3-0.2l-6.3-2.1c-2.1-0.7-3.2-3-2.5-5.1s3-3.2,5.1-2.5l6.3,2.1
		c2.1,0.7,3.2,3,2.5,5.1C316.8,216.5,315.2,217.5,313.5,217.5L313.5,217.5z"/>
	<path fill="#FFFFFF" d="M64,133.9c-0.4,0-0.8-0.1-1.3-0.2l-6.3-2.1c-2.1-0.7-3.2-3-2.5-5.1s3-3.2,5.1-2.5l6.3,2.1
		c2.1,0.7,3.2,3,2.5,5.1C67.2,132.8,65.7,133.9,64,133.9L64,133.9z"/>
</g>
<g display="none">
	<path display="inline" fill="#20505B" d="M343.5,263.7c0,9.2-7.5,16.7-16.7,16.7s-16.7-7.5-16.7-16.7c0-9.2,7.5-16.7,16.7-16.7
		S343.5,254.5,343.5,263.7L343.5,263.7z"/>
	<path display="inline" fill="#333333" d="M326.6,285.4c-11.9,0-21.7-9.7-21.7-21.7c0-11.9,9.7-21.7,21.7-21.7
		c11.9,0,21.7,9.7,21.7,21.7C348.4,275.7,338.6,285.4,326.6,285.4L326.6,285.4z M326.6,251.9c-6.5,0-11.8,5.3-11.8,11.8
		s5.3,11.8,11.8,11.8s11.8-5.3,11.8-11.8C338.5,257.2,333.2,251.9,326.6,251.9L326.6,251.9z"/>
</g>
<g display="none">
	<path display="inline" fill="#FCBC1D" d="M16.9,81.1c-4.2,0-7.5-3.4-7.5-7.5V41.3c0-4.2,3.4-7.5,7.5-7.5c4.2,0,7.5,3.4,7.5,7.5
		v32.3C24.4,77.7,21,81.1,16.9,81.1L16.9,81.1z"/>
	<path display="inline" fill="#FCBC1D" d="M32.9,64.9H0.7c-4.2,0-7.5-3.4-7.5-7.5c0-4.2,3.4-7.5,7.5-7.5h32.3c4.2,0,7.5,3.4,7.5,7.5
		C40.4,61.6,37,64.9,32.9,64.9L32.9,64.9z"/>
</g>
<g display="none">
	<path display="inline" fill="#FCBC1D" d="M282.5,273.5c3.2,0,5.7,2.6,5.7,5.7v24.5c0,3.2-2.6,5.7-5.7,5.7c-3.2,0-5.7-2.6-5.7-5.7
		v-24.5C276.8,276,279.2,273.5,282.5,273.5L282.5,273.5z"/>
	<path display="inline" fill="#FCBC1D" d="M270.1,285.7h24.5c3.2,0,5.7,2.6,5.7,5.7c0,3.2-2.6,5.7-5.7,5.7h-24.5
		c-3.2,0-5.7-2.6-5.7-5.7C264.5,288.3,267.1,285.7,270.1,285.7L270.1,285.7z"/>
</g>
</svg>
