<?xml version="1.0" encoding="utf-8"?>
<!-- Generator: Adobe Illustrator 24.0.0, SVG Export Plug-In . SVG Version: 6.00 Build 0)  -->
<svg version="1.1" id="Layer_1" xmlns="http://www.w3.org/2000/svg" xmlns:xlink="http://www.w3.org/1999/xlink" x="0px" y="0px"
	 width="2301.3px" height="278.2px" viewBox="0 0 2301.3 278.2" enable-background="new 0 0 2301.3 278.2" xml:space="preserve">
<g enable-background="new    ">
	<path stroke="#000000" stroke-width="5" stroke-miterlimit="10" d="M580,204.7c-8.7,2.6-18.7,3.9-30.1,3.9c-11.4,0-21.7-2-31.1-5.9
		c-9.3-3.9-17.3-9.3-24-16.1c-6.6-6.8-11.7-14.9-15.3-24.1c-3.6-9.3-5.4-19.3-5.4-30.1c0-10.8,1.8-20.9,5.5-30.1
		c3.7-9.3,8.8-17.2,15.3-23.9c6.6-6.7,14.4-11.9,23.6-15.7c9.2-3.8,19.3-5.7,30.4-5.7c9.7,0,18.7,1.5,26.8,4.5
		c8.1,3,15.3,7,21.5,12.2l-3.2,3.2c-2.7-2.6-5.8-4.8-9.4-6.8c-3.6-2-7.4-3.6-11.4-5c-4-1.3-8.1-2.4-12.3-3c-4.2-0.7-8.2-1-12.2-1
		c-10.5,0-20.1,1.9-28.8,5.6c-8.7,3.7-16.1,8.8-22.2,15.3c-6.2,6.5-10.9,14.1-14.2,22.7c-3.3,8.7-5,17.9-5,27.8
		c0,9.9,1.6,19.2,4.9,28c3.2,8.8,7.9,16.5,14.1,23c6.2,6.6,13.7,11.7,22.5,15.5c8.9,3.8,18.9,5.7,30.1,5.7c9.7,0,18.4-1,26-3
		c7.6-2,14.5-4.6,20.9-7.7v-56.4h-37.3v-3.9h41.8v62.7C595.8,199.3,588.6,202.2,580,204.7z"/>
	<path stroke="#000000" stroke-width="5" stroke-miterlimit="10" d="M705.5,183.4c0,3.5,0.2,7.3,0.5,11.3c0.3,4,0.7,7.3,1.1,9.8
		h-4.3c-0.3-1.4-0.5-3-0.6-5c-0.1-2-0.3-4-0.5-6.1c-0.2-2.1-0.3-4.2-0.4-6.2c-0.1-2-0.1-3.7-0.1-5.1h-0.6c-2.7,8.5-7.4,14.8-14,19
		c-6.6,4.1-13.7,6.2-21.3,6.2c-3.8,0-7.5-0.5-11.3-1.6c-3.7-1.1-7.1-2.7-10-4.9c-3-2.2-5.4-4.9-7.2-8.3c-1.8-3.4-2.7-7.4-2.7-12
		c0-6.6,1.7-12,5.2-16c3.4-4.1,7.7-7.2,12.9-9.4c5.1-2.2,10.6-3.7,16.5-4.4c5.9-0.7,11.3-1,16.1-1h16.2v-7.5c0-10.4-2.8-18-8.3-22.8
		c-5.5-4.8-12.8-7.2-21.7-7.2c-5.5,0-10.7,1-15.5,3c-4.8,2-9.1,4.7-12.9,8.1l-2.4-3.4c4.3-3.8,9.2-6.7,14.7-8.6
		c5.5-2,10.8-2.9,16.1-2.9c10.7,0,19.1,2.7,25.2,8.2c6.2,5.5,9.2,14.1,9.2,25.9V183.4z M701.1,153.6h-14.4c-5.1,0-10.5,0.3-16.2,0.9
		c-5.7,0.6-10.9,1.9-15.6,3.8c-4.7,1.9-8.6,4.6-11.7,8.1c-3,3.5-4.6,8.2-4.6,14.2c0,4.3,0.8,7.9,2.5,10.8c1.7,2.9,3.9,5.2,6.5,7
		c2.6,1.8,5.5,3,8.7,3.9c3.2,0.8,6.2,1.2,9,1.2c6.9,0,12.6-1.3,17.2-3.9c4.6-2.6,8.3-5.8,11.1-9.8c2.8-4,4.7-8.4,5.8-13.2
		c1.1-4.8,1.6-9.5,1.6-14.1V153.6z"/>
	<path stroke="#000000" stroke-width="5" stroke-miterlimit="10" d="M745.3,204.5V51.2h4.5v153.3H745.3z"/>
	<path stroke="#000000" stroke-width="5" stroke-miterlimit="10" d="M855.2,183.4c0,3.5,0.2,7.3,0.5,11.3c0.3,4,0.7,7.3,1.1,9.8
		h-4.3c-0.3-1.4-0.5-3-0.6-5c-0.1-2-0.3-4-0.5-6.1c-0.2-2.1-0.3-4.2-0.4-6.2c-0.1-2-0.1-3.7-0.1-5.1h-0.6c-2.7,8.5-7.4,14.8-14,19
		c-6.6,4.1-13.7,6.2-21.3,6.2c-3.8,0-7.5-0.5-11.3-1.6c-3.7-1.1-7.1-2.7-10-4.9c-3-2.2-5.4-4.9-7.2-8.3c-1.8-3.4-2.7-7.4-2.7-12
		c0-6.6,1.7-12,5.2-16c3.4-4.1,7.7-7.2,12.9-9.4c5.1-2.2,10.6-3.7,16.5-4.4c5.9-0.7,11.3-1,16.1-1h16.2v-7.5c0-10.4-2.8-18-8.3-22.8
		c-5.5-4.8-12.8-7.2-21.7-7.2c-5.5,0-10.7,1-15.5,3c-4.8,2-9.1,4.7-12.9,8.1l-2.4-3.4c4.3-3.8,9.2-6.7,14.7-8.6
		c5.5-2,10.8-2.9,16.1-2.9c10.7,0,19.1,2.7,25.2,8.2c6.2,5.5,9.2,14.1,9.2,25.9V183.4z M850.7,153.6h-14.4c-5.1,0-10.5,0.3-16.2,0.9
		c-5.7,0.6-10.9,1.9-15.6,3.8c-4.7,1.9-8.6,4.6-11.7,8.1c-3,3.5-4.6,8.2-4.6,14.2c0,4.3,0.8,7.9,2.5,10.8c1.7,2.9,3.9,5.2,6.5,7
		c2.6,1.8,5.5,3,8.7,3.9c3.2,0.8,6.2,1.2,9,1.2c6.9,0,12.6-1.3,17.2-3.9c4.6-2.6,8.3-5.8,11.1-9.8c2.8-4,4.7-8.4,5.8-13.2
		c1.1-4.8,1.6-9.5,1.6-14.1V153.6z"/>
	<path stroke="#000000" stroke-width="5" stroke-miterlimit="10" d="M961.5,123.8c-3.5-3.6-7.6-6.5-12.4-8.5c-4.7-2-9.7-3-14.8-3
		c-6.6,0-12.6,1.3-17.8,3.8c-5.3,2.5-9.8,5.8-13.5,10c-3.7,4.2-6.6,9.1-8.6,14.6c-2,5.5-3,11.4-3,17.4c0,6.1,1,11.9,3,17.4
		c2,5.5,4.9,10.4,8.6,14.5c3.7,4.1,8.2,7.4,13.5,9.8c5.3,2.4,11.2,3.6,17.8,3.6c5.1,0,10.2-0.9,15.1-2.6c4.9-1.8,9.2-4.4,12.9-7.9
		l3,2.8c-4.1,4.1-8.8,7-14.3,8.8c-5.5,1.8-11.1,2.7-16.7,2.7c-6.9,0-13.2-1.2-19-3.6c-5.7-2.4-10.7-5.8-15-10.1
		c-4.3-4.3-7.6-9.5-9.9-15.6c-2.4-6.1-3.5-12.7-3.5-19.9c0-7.2,1.2-13.8,3.5-19.9c2.4-6.1,5.7-11.3,9.9-15.7
		c4.3-4.4,9.3-7.8,15-10.3c5.7-2.5,12.1-3.8,19-3.8c5.9,0,11.6,1.1,16.9,3.2c5.3,2.2,9.9,5.2,13.7,9.1L961.5,123.8z"/>
	<path stroke="#000000" stroke-width="5" stroke-miterlimit="10" d="M1022.5,206.3c-2.2,0.4-4.3,0.6-6.3,0.6
		c-7.3,0-12.5-2.1-15.6-6.2c-3.1-4.1-4.7-9.3-4.7-15.5v-70.2h-20.3v-3.9h20.1V83.9h4.5v27.4h27.4v3.9h-27.4v70.2
		c0,6.4,1.6,10.9,4.7,13.7c3.1,2.8,7.2,4.2,12.4,4.2c3.8,0,7.2-0.6,10.3-1.8l0.6,3.4C1026.5,205.4,1024.6,205.9,1022.5,206.3z"/>
	<path stroke="#000000" stroke-width="5" stroke-miterlimit="10" d="M1056.1,76.2c-1.2,0-2.3-0.5-3.2-1.4c-0.9-0.9-1.4-2.2-1.4-3.9
		c0-1.5,0.5-2.7,1.4-3.6c0.9-0.9,2-1.4,3.2-1.4c1.2,0,2.3,0.5,3.2,1.4c0.9,0.9,1.4,2.2,1.4,3.6c0,1.6-0.5,2.9-1.5,3.9
		C1058.3,75.7,1057.2,76.2,1056.1,76.2z M1053.9,204.5v-93.3h4.5v93.3H1053.9z"/>
	<path stroke="#000000" stroke-width="5" stroke-miterlimit="10" d="M1166.3,123.8c-3.5-3.6-7.6-6.5-12.4-8.5c-4.7-2-9.7-3-14.8-3
		c-6.6,0-12.6,1.3-17.8,3.8c-5.3,2.5-9.8,5.8-13.5,10c-3.7,4.2-6.6,9.1-8.6,14.6c-2,5.5-3,11.4-3,17.4c0,6.1,1,11.9,3,17.4
		c2,5.5,4.9,10.4,8.6,14.5c3.7,4.1,8.2,7.4,13.5,9.8c5.3,2.4,11.2,3.6,17.8,3.6c5.1,0,10.2-0.9,15.1-2.6c4.9-1.8,9.2-4.4,12.9-7.9
		l3,2.8c-4.1,4.1-8.8,7-14.3,8.8c-5.5,1.8-11.1,2.7-16.7,2.7c-6.9,0-13.2-1.2-19-3.6c-5.7-2.4-10.7-5.8-15-10.1
		c-4.3-4.3-7.6-9.5-9.9-15.6c-2.4-6.1-3.5-12.7-3.5-19.9c0-7.2,1.2-13.8,3.5-19.9c2.4-6.1,5.7-11.3,9.9-15.7
		c4.3-4.4,9.3-7.8,15-10.3c5.7-2.5,12.1-3.8,19-3.8c5.9,0,11.6,1.1,16.9,3.2c5.3,2.2,9.9,5.2,13.7,9.1L1166.3,123.8z"/>
	<path stroke="#000000" stroke-width="5" stroke-miterlimit="10" d="M1343.2,203.2c-9.3,3.6-18.7,5.4-28.3,5.4
		c-10.8,0-20.7-1.9-29.6-5.7c-8.9-3.8-16.6-9-23.1-15.7c-6.5-6.7-11.5-14.7-15.1-24c-3.6-9.3-5.4-19.5-5.4-30.4s1.8-21.1,5.4-30.4
		c3.6-9.3,8.6-17.3,15.1-24c6.5-6.7,14.2-11.9,23.2-15.7c9-3.8,18.8-5.7,29.5-5.7c8.9,0,17.6,1.5,26.1,4.6c8.4,3,15.6,7.7,21.6,13.9
		l-2.8,3.2c-2.8-3-6.1-5.6-9.6-7.8c-3.6-2.2-7.4-4.1-11.4-5.6c-4-1.5-8-2.6-12.1-3.2c-4.1-0.7-8-1-11.8-1c-10.3,0-19.6,1.9-28.1,5.6
		c-8.5,3.7-15.7,8.8-21.7,15.3c-6,6.5-10.7,14.1-14,22.8c-3.3,8.7-5,18.1-5,28.1c0,10,1.6,19.4,4.9,28.1c3.2,8.7,7.9,16.3,13.9,22.8
		c6,6.5,13.2,11.6,21.7,15.3c8.4,3.7,17.9,5.6,28.3,5.6c8.9,0,17.7-1.7,26.5-5.2c8.7-3.4,15.9-8.6,21.6-15.5l3.2,3
		C1360.1,194.2,1352.5,199.6,1343.2,203.2z"/>
	<path stroke="#000000" stroke-width="5" stroke-miterlimit="10" d="M1481.6,157.7c0,7.3-1.2,14-3.5,20.1c-2.4,6.1-5.7,11.3-10,15.7
		c-4.3,4.4-9.5,7.8-15.5,10.2c-6,2.4-12.6,3.6-19.8,3.6c-7.2,0-13.7-1.2-19.7-3.6c-6-2.4-11.1-5.8-15.4-10.2
		c-4.3-4.4-7.7-9.6-10-15.7c-2.4-6.1-3.5-12.8-3.5-20.1s1.2-14,3.5-20c2.4-6,5.7-11.2,10-15.5c4.3-4.3,9.5-7.7,15.4-10.1
		c5.9-2.4,12.5-3.6,19.7-3.6c7.2,0,13.8,1.2,19.8,3.6c6,2.4,11.2,5.8,15.5,10.1c4.3,4.3,7.7,9.5,10,15.5
		C1480.4,143.7,1481.6,150.4,1481.6,157.7z M1477.1,157.7c0-6.2-1-12.1-3-17.6c-2-5.5-5-10.4-8.8-14.5c-3.9-4.1-8.5-7.4-14-9.7
		c-5.5-2.4-11.7-3.5-18.6-3.5c-6.9,0-13,1.2-18.5,3.5c-5.4,2.4-10,5.6-13.9,9.7c-3.9,4.1-6.8,9-8.8,14.5c-2,5.5-3,11.4-3,17.6
		c0,6.4,1,12.3,3,17.8c2,5.5,5,10.4,8.8,14.5c3.9,4.1,8.5,7.4,13.9,9.8c5.4,2.4,11.6,3.6,18.5,3.6c6.9,0,13.1-1.2,18.6-3.6
		c5.5-2.4,10.1-5.7,14-9.8c3.9-4.1,6.8-9,8.8-14.5C1476.1,170,1477.1,164,1477.1,157.7z"/>
	<path stroke="#000000" stroke-width="5" stroke-miterlimit="10" d="M1526,124.2c2.6-3.4,5.5-6.3,8.7-8.6c3.2-2.4,6.8-4.2,10.5-5.4
		c3.8-1.2,7.7-1.8,11.8-1.8c6.5,0,11.9,1.1,16.2,3.4c4.3,2.3,7.8,5.3,10.3,9.1c2.6,3.8,4.4,8,5.5,12.8c1.1,4.7,1.6,9.5,1.6,14.4
		v56.4h-4.5v-56c0-3.8-0.4-7.8-1.2-12.2c-0.8-4.3-2.3-8.2-4.6-11.8c-2.2-3.5-5.2-6.5-9-8.8c-3.8-2.4-8.6-3.5-14.4-3.5
		c-5.1,0-10,1-14.5,3.1c-4.5,2.1-8.5,5.1-11.8,9c-3.3,3.9-6,8.7-7.9,14.3c-2,5.6-2.9,12-2.9,19.2v46.6h-4.5v-69.8
		c0-1.5,0-3.3-0.1-5.5c-0.1-2.2-0.1-4.4-0.2-6.6c-0.1-2.2-0.2-4.4-0.3-6.4c-0.1-2-0.3-3.7-0.4-5.1h4.5c0.1,1.4,0.2,3,0.3,5.1
		c0.1,2,0.1,4.2,0.2,6.6c0.1,2.4,0.1,4.7,0.2,6.9c0.1,2.2,0.1,4.2,0.1,6h0.4C1521.5,131.5,1523.4,127.6,1526,124.2z"/>
	<path stroke="#000000" stroke-width="5" stroke-miterlimit="10" d="M1661.1,206.3c-2.2,0.4-4.3,0.6-6.3,0.6
		c-7.3,0-12.5-2.1-15.6-6.2c-3.1-4.1-4.7-9.3-4.7-15.5v-70.2h-20.3v-3.9h20.1V83.9h4.5v27.4h27.4v3.9h-27.4v70.2
		c0,6.4,1.6,10.9,4.7,13.7c3.1,2.8,7.2,4.2,12.4,4.2c3.8,0,7.2-0.6,10.3-1.8l0.6,3.4C1665.1,205.4,1663.2,205.9,1661.1,206.3z"/>
	<path stroke="#000000" stroke-width="5" stroke-miterlimit="10" d="M1688.8,156.9c0,5.7,0.8,11.3,2.5,16.8
		c1.7,5.5,4.3,10.5,7.7,14.9c3.4,4.4,7.8,7.9,13.1,10.6c5.3,2.7,11.5,4.1,18.7,4.1c7.3,0,13.8-1.5,19.5-4.4
		c5.7-2.9,10.6-7.1,14.8-12.7l3.2,2.8c-4.6,6-10,10.5-16.1,13.6c-6.2,3.1-13.3,4.7-21.4,4.7c-6.9,0-13.2-1.3-18.9-3.8
		c-5.7-2.5-10.6-6-14.7-10.4c-4.1-4.5-7.3-9.8-9.5-16c-2.2-6.2-3.3-13-3.3-20.3c0-7,1.2-13.5,3.5-19.5c2.3-5.9,5.5-11.1,9.5-15.4
		c4-4.3,8.7-7.7,14.1-10c5.4-2.4,11.2-3.5,17.5-3.5c7.3,0,13.7,1.3,19.1,3.9c5.4,2.6,9.9,6,13.5,10.1c3.6,4.2,6.3,9,8,14.3
		c1.8,5.3,2.6,10.8,2.6,16.3v3.9H1688.8z M1767.7,153c-0.1-6.1-1.2-11.6-3.1-16.6c-2-5-4.6-9.3-8-12.9c-3.4-3.6-7.4-6.4-12.2-8.3
		c-4.7-2-10-2.9-15.8-2.9c-7,0-13,1.5-18,4.4c-5,2.9-9.1,6.5-12.3,10.7c-3.2,4.3-5.5,8.7-7,13.4c-1.5,4.7-2.2,8.8-2.2,12.3H1767.7z"
		/>
	<path stroke="#000000" stroke-width="5" stroke-miterlimit="10" d="M1816.4,124.2c2.6-3.4,5.5-6.3,8.7-8.6
		c3.2-2.4,6.8-4.2,10.5-5.4c3.8-1.2,7.7-1.8,11.8-1.8c6.5,0,11.9,1.1,16.2,3.4c4.3,2.3,7.8,5.3,10.3,9.1c2.6,3.8,4.4,8,5.5,12.8
		c1.1,4.7,1.6,9.5,1.6,14.4v56.4h-4.5v-56c0-3.8-0.4-7.8-1.2-12.2c-0.8-4.3-2.3-8.2-4.6-11.8c-2.2-3.5-5.2-6.5-9-8.8
		c-3.8-2.4-8.6-3.5-14.4-3.5c-5.1,0-10,1-14.5,3.1c-4.5,2.1-8.5,5.1-11.8,9c-3.3,3.9-6,8.7-7.9,14.3c-2,5.6-2.9,12-2.9,19.2v46.6
		h-4.5v-69.8c0-1.5,0-3.3-0.1-5.5c-0.1-2.2-0.1-4.4-0.2-6.6c-0.1-2.2-0.2-4.4-0.3-6.4c-0.1-2-0.3-3.7-0.4-5.1h4.5
		c0.1,1.4,0.2,3,0.3,5.1c0.1,2,0.1,4.2,0.2,6.6c0.1,2.4,0.1,4.7,0.2,6.9c0.1,2.2,0.1,4.2,0.1,6h0.4
		C1811.9,131.5,1813.8,127.6,1816.4,124.2z"/>
	<path stroke="#000000" stroke-width="5" stroke-miterlimit="10" d="M2002.4,51.2h4.5v153.3h-4.5v-25.1h-0.6
		c-4.1,9.2-9.8,16.2-17.3,20.9s-15.7,7.1-24.6,7.1c-6.8,0-13-1.3-18.8-3.8c-5.7-2.5-10.7-5.9-14.8-10.3c-4.1-4.4-7.3-9.6-9.6-15.6
		c-2.3-6-3.4-12.5-3.4-19.6c0-7,1.1-13.6,3.4-19.7c2.3-6.1,5.5-11.4,9.6-15.8c4.1-4.5,9.1-7.9,14.8-10.4c5.7-2.5,12-3.8,18.8-3.8
		c8.9,0,17.1,2.4,24.6,7.1c7.5,4.7,13.3,11.8,17.3,21.1h0.6V51.2z M1917.6,158.1c0,6.1,1,11.9,2.9,17.4c2,5.5,4.8,10.4,8.4,14.5
		c3.6,4.1,8.1,7.4,13.3,9.8c5.2,2.4,11.1,3.6,17.5,3.6c6.2,0,11.9-1.2,17.1-3.6c5.2-2.4,9.7-5.7,13.5-9.8c3.8-4.1,6.8-9,8.9-14.5
		c2.2-5.5,3.2-11.4,3.2-17.6c0-6.2-1.1-12.1-3.2-17.6c-2.2-5.5-5.1-10.4-8.9-14.5c-3.8-4.1-8.3-7.4-13.5-9.8
		c-5.2-2.4-10.9-3.7-17.1-3.7c-6.5,0-12.3,1.3-17.5,3.8c-5.2,2.5-9.6,5.8-13.3,10c-3.7,4.2-6.5,9.1-8.4,14.6
		C1918.6,146.2,1917.6,152,1917.6,158.1z"/>
	<path stroke="#000000" stroke-width="5" stroke-miterlimit="10" d="M2044.5,156.9c0,5.7,0.8,11.3,2.5,16.8
		c1.7,5.5,4.3,10.5,7.7,14.9c3.4,4.4,7.8,7.9,13.1,10.6c5.3,2.7,11.5,4.1,18.7,4.1c7.3,0,13.8-1.5,19.5-4.4
		c5.7-2.9,10.6-7.1,14.8-12.7l3.2,2.8c-4.6,6-10,10.5-16.1,13.6c-6.2,3.1-13.3,4.7-21.4,4.7c-6.9,0-13.2-1.3-18.9-3.8
		c-5.7-2.5-10.6-6-14.7-10.4c-4.1-4.5-7.3-9.8-9.5-16c-2.2-6.2-3.3-13-3.3-20.3c0-7,1.2-13.5,3.5-19.5c2.3-5.9,5.5-11.1,9.5-15.4
		c4-4.3,8.7-7.7,14.1-10c5.4-2.4,11.2-3.5,17.5-3.5c7.3,0,13.7,1.3,19.1,3.9c5.4,2.6,9.9,6,13.5,10.1c3.6,4.2,6.3,9,8,14.3
		c1.8,5.3,2.6,10.8,2.6,16.3v3.9H2044.5z M2123.4,153c-0.1-6.1-1.2-11.6-3.1-16.6c-2-5-4.6-9.3-8-12.9c-3.4-3.6-7.4-6.4-12.2-8.3
		c-4.7-2-10-2.9-15.8-2.9c-7,0-13,1.5-18,4.4c-5,2.9-9.1,6.5-12.3,10.7c-3.2,4.3-5.5,8.7-7,13.4c-1.5,4.7-2.2,8.8-2.2,12.3H2123.4z"
		/>
	<path stroke="#000000" stroke-width="5" stroke-miterlimit="10" d="M2179.2,114.8c5.9-4.3,12.4-6.4,19.3-6.4c0.7,0,1.3,0,1.8,0
		c0.5,0,1.1,0.1,1.8,0.2v3.9c-0.5-0.1-1-0.2-1.5-0.2c-0.5,0-0.8,0-1.1,0c-5.9,0-11,1.3-15.2,4c-4.2,2.6-7.6,6.1-10.3,10.3
		c-2.7,4.3-4.7,9-6,14.2c-1.3,5.2-1.9,10.4-1.9,15.5v48.3h-4.5v-69.8c0-1.5,0-3.3-0.1-5.5c-0.1-2.2-0.1-4.4-0.2-6.6
		c-0.1-2.2-0.2-4.4-0.3-6.4c-0.1-2-0.3-3.7-0.4-5.1h4.5c0.1,1.4,0.2,3,0.3,5.1c0.1,2,0.1,4.2,0.2,6.6c0.1,2.4,0.1,4.7,0.2,6.9
		c0.1,2.2,0.1,4.2,0.1,6h0.4C2168.9,126,2173.2,119,2179.2,114.8z"/>
</g>
<g>
	<path fill="#20505B" d="M105.5,116.4l159.4,53.5c-14.8,44-62.4,67.7-106.4,53C114.5,208.1,90.8,160.4,105.5,116.4L105.5,116.4z
		 M105.5,116.4"/>
	<path display="none" fill="#154047" d="M245.6,143.9c0,32.9-26.7,59.6-59.6,59.6c-32.9,0-59.6-26.7-59.6-59.6
		c0-32.9,26.7-59.6,59.6-59.6C218.9,84.3,245.6,111,245.6,143.9L245.6,143.9z M245.6,143.9"/>
	<path display="none" fill="#092A2D" d="M218.6,143.9c0,18-14.6,32.6-32.6,32.6c-18,0-32.6-14.6-32.6-32.6c0-18,14.6-32.6,32.6-32.6
		C204,111.3,218.6,125.8,218.6,143.9L218.6,143.9z M218.6,143.9"/>
	<path fill="#20505B" d="M269.1,137.5L121.7,88.1c21.7-24.9,57-35.8,90.2-24.6C245.2,74.6,266.8,104.5,269.1,137.5L269.1,137.5z
		 M269.1,137.5"/>
	<path fill="#FCBC1D" d="M264.9,169.9l31.6,10.6c-20.6,61.5-87.1,94.6-148.6,74c-61.5-20.6-94.6-87.1-74-148.6l31.6,10.6
		c-14.8,44,9,91.7,53,106.4C202.5,237.6,250.2,213.9,264.9,169.9L264.9,169.9z M264.9,169.9"/>
	<path fill="#EAC16E" d="M358.4,190.9c2.6,1.3,3.2,3.8,2.5,6c-0.8,2.3-3.2,4.2-6.2,3.1l-58.3-19.5l-31.6-10.6l-159.4-53.5
		l-31.6-10.6l0,0L15.7,86.3c-5.8-1.9-3.5-10.7,2.5-9.5c14.1,2.8,28.4,2,41.8-2.1c13.4-4.1,25.7-11.4,35.9-21.5
		c32.9-32.7,82.6-46,129.6-30.2c47,15.7,78.6,56.3,85.2,102.2C314.8,153.7,332.5,178.4,358.4,190.9L358.4,190.9z M121.7,88.1
		l147.3,49.4c-2.2-33-23.9-62.9-57.1-74C178.7,52.3,143.4,63.1,121.7,88.1L121.7,88.1z M121.7,88.1"/>
	<g>
		<defs>
			<rect id="SVGID_3_" x="8.3" y="-15.3" width="356.9" height="311.8"/>
		</defs>
		<clipPath id="SVGID_1_">
			<use xlink:href="#SVGID_3_"  overflow="visible"/>
		</clipPath>
		<path display="none" clip-path="url(#SVGID_1_)" fill="#333333" d="M185.2,277.2c-14.2,0-28.5-2.3-42.5-6.9l-0.2-0.1
			c-15.7-5.3-30.1-13.3-42.8-23.8c-1.7-1.4-1.9-3.9-0.5-5.6c1.4-1.7,3.9-1.9,5.6-0.5c11.9,9.9,25.4,17.4,40.2,22.3l0.1,0
			c47.9,16,100.6,1.9,134.3-35.9c1.5-1.7,4-1.8,5.6-0.3c1.7,1.5,1.8,4,0.3,5.6C259.5,261.3,222.9,277.2,185.2,277.2L185.2,277.2z
			 M87.8,233.2c-1.1,0-2.2-0.5-3-1.4c-25.6-29.1-37.5-67.7-32.5-106c0.3-2.2,2.3-3.7,4.5-3.5c2.2,0.3,3.7,2.3,3.5,4.5
			c-4.7,36,6.5,72.3,30.6,99.7c1.5,1.7,1.3,4.2-0.4,5.6C89.7,232.9,88.7,233.2,87.8,233.2L87.8,233.2z M293.7,218.8
			c-0.8,0-1.5-0.2-2.2-0.7c-1.8-1.2-2.3-3.7-1.1-5.5c2.7-4.1,5.2-8.4,7.4-12.8c1-2,3.4-2.8,5.4-1.8c2,1,2.8,3.4,1.8,5.4
			c-2.4,4.7-5,9.3-7.9,13.6C296.3,218.2,295,218.8,293.7,218.8L293.7,218.8z M348.8,173.7c-0.9,0-1.8-0.3-2.6-0.9
			c-14.6-12.3-24.2-29.6-27-48.8c-0.3-2.2,1.2-4.2,3.4-4.5c2.2-0.3,4.2,1.2,4.5,3.4c2.5,17.2,11.1,32.7,24.2,43.8
			c1.7,1.4,1.9,3.9,0.5,5.6C351.1,173.2,350,173.7,348.8,173.7L348.8,173.7z M318.8,107.2c-1.7,0-3.3-1.1-3.8-2.9
			c-5.2-17.3-13.6-33.1-25-47c-8.5-10.4-18.5-19.4-29.6-26.9c-1.8-1.2-2.3-3.7-1.1-5.5c1.2-1.8,3.7-2.3,5.5-1.1
			c11.8,7.9,22.4,17.5,31.4,28.5c12.1,14.8,21,31.5,26.5,49.8c0.6,2.1-0.6,4.3-2.7,5C319.6,107.2,319.2,107.2,318.8,107.2
			L318.8,107.2z M56.2,66.6c-1.7,0-3.3-1.1-3.8-2.8c-0.6-2.1,0.5-4.3,2.7-5c5.4-1.6,10.7-4,15.6-6.9c1.9-1.1,4.4-0.5,5.5,1.4
			c1.1,1.9,0.5,4.4-1.4,5.5c-5.5,3.3-11.3,5.9-17.3,7.7C57,66.5,56.6,66.6,56.2,66.6L56.2,66.6z M87,48.2c-1,0-2.1-0.4-2.8-1.2
			c-1.6-1.6-1.5-4.1,0-5.7C102.7,22.9,126,9.9,151.5,3.7c26.1-6.3,53.5-5.2,79.1,3.4l0.2,0.1c4.6,1.5,9.2,3.3,13.6,5.3
			c2,0.9,2.9,3.3,2,5.3s-3.3,2.9-5.3,2c-4.2-1.9-8.5-3.6-12.8-5l-0.2-0.1c-24.2-8.1-50-9.2-74.7-3.2c-24.1,5.8-46,18.1-63.6,35.5
			C89,47.8,88,48.2,87,48.2L87,48.2z M87,48.2"/>
		<path clip-path="url(#SVGID_1_)" fill="#333333" d="M185.1,264.5c-12.8,0-25.7-2-38.5-6.3c-62.2-20.8-96.4-87.5-77.7-149.8
			L14.4,90.1c-4.6-1.5-7-6-5.8-10.7c1.2-4.7,5.6-7.4,10.3-6.5c13.2,2.6,27,1.9,39.8-2c12.8-3.9,24.7-11,34.3-20.5
			c16.9-16.8,38.2-28.7,61.4-34.3c23.9-5.8,48.9-4.7,72.3,3.1c23.4,7.8,44,22,59.6,41.1c15.1,18.5,24.9,40.8,28.3,64.4
			c3.9,27.3,20.9,50.8,45.5,62.7c4.2,2,6,6.5,4.6,10.8c-0.8,2.3-2.4,4.2-4.5,5.3c-2.1,1-4.5,1.2-6.8,0.4l-25.3-8.5
			c-2.1-0.7-3.2-3-2.5-5.1c0.7-2.1,3-3.2,5.1-2.5l25.4,8.5c0.5,0.2,0.6,0.1,0.7,0c0.2-0.1,0.4-0.3,0.5-0.6c0.2-0.7-0.2-0.9-0.5-1.1
			c-27-13.1-45.7-38.8-50-68.7c-3.2-22.2-12.4-43.1-26.6-60.5c-14.6-17.9-33.9-31.2-55.9-38.5c-22-7.4-45.4-8.4-67.8-3
			c-21.8,5.3-41.8,16.4-57.7,32.2C88.2,66.5,75.2,74.3,61.1,78.5c-14.1,4.3-29.2,5.1-43.7,2.2c-0.3-0.1-0.8-0.2-1.1,0.7
			c-0.2,0.8,0.3,1,0.6,1.1L75.2,102c2.1,0.7,3.2,2.9,2.6,5c0,0,0,0.1,0,0.1c-19.9,59.3,12.2,123.7,71.4,143.5
			c59.3,19.9,123.7-12.2,143.5-71.4c0.7-2.1,3-3.2,5.1-2.5l9.7,3.3c2.1,0.7,3.2,3,2.5,5.1c-0.7,2.1-3,3.2-5.1,2.5l-6-2
			C280.9,234,234.6,264.5,185.1,264.5L185.1,264.5z M185.1,264.5"/>
	</g>
	<path fill="#333333" d="M185.3,231.3c-9.4,0-18.9-1.5-28.1-4.6c-22.3-7.5-40.4-23.2-50.8-44.2c-10.5-21.1-12.1-44.9-4.7-67.2
		c0.7-2.1,3-3.2,5.1-2.5c2.1,0.7,3.2,3,2.5,5.1c-14,41.9,8.6,87.3,50.4,101.4c20.3,6.8,42,5.3,61.1-4.2
		c19.1-9.5,33.4-25.9,40.2-46.2c0.7-2.1,3-3.2,5.1-2.5c2.1,0.7,3.2,3,2.5,5.1c-7.5,22.3-23.2,40.4-44.2,50.8
		C212.1,228.1,198.7,231.3,185.3,231.3L185.3,231.3z M185.3,231.3"/>
	<path fill="#333333" d="M269.1,141.5c-0.4,0-0.9-0.1-1.3-0.2L120.5,91.9c-1.3-0.4-2.2-1.5-2.6-2.7c-0.3-1.3,0-2.7,0.8-3.7
		c23.5-27.1,60.6-37.2,94.5-25.8c21.6,7.2,39.3,22.3,49.9,42.4c1,2,0.3,4.4-1.7,5.4c-2,1-4.4,0.3-5.4-1.7
		c-9.6-18.3-25.7-32-45.3-38.6c-28.9-9.7-60.4-2.2-81.8,19l135.5,45.5c-0.7-4.6-1.7-9.1-3.2-13.6c-0.7-2.1,0.5-4.4,2.6-5.1
		c2.1-0.7,4.4,0.5,5.1,2.6c2.3,7,3.7,14.2,4.2,21.6c0.1,1.3-0.5,2.6-1.5,3.4C270.8,141.2,269.9,141.5,269.1,141.5L269.1,141.5z
		 M269.1,141.5"/>
	<path fill="#333333" d="M296.5,184.5c-0.4,0-0.9-0.1-1.3-0.2l-71.7-24c-2.1-0.7-3.2-3-2.5-5.1c0.7-2.1,3-3.2,5.1-2.5l71.7,24
		c2.1,0.7,3.2,3,2.5,5.1C299.7,183.4,298.2,184.5,296.5,184.5L296.5,184.5z M296.5,184.5"/>
	<path fill="#333333" d="M206.4,154.3c-0.4,0-0.8-0.1-1.3-0.2L59.2,105.1c-2.1-0.7-3.2-3-2.5-5.1c0.7-2.1,3-3.2,5.1-2.5l145.9,48.9
		c2.1,0.7,3.2,3,2.5,5.1C209.6,153.2,208,154.3,206.4,154.3L206.4,154.3z M206.4,154.3"/>
	<path fill="#FFFFFF" d="M311,173c-0.4,0-0.9-0.1-1.3-0.2l-32.5-10.9c-2.1-0.7-3.2-3-2.5-5.1c0.7-2.1,3-3.2,5.1-2.5l22.4,7.5
		c-4-7.7-7-15.9-9-24.4c-0.5-2.1,0.8-4.3,3-4.8c2.2-0.5,4.3,0.8,4.8,3c2.6,11.2,7.1,21.7,13.4,31.3c0.9,1.4,0.9,3.3-0.2,4.6
		C313.4,172.5,312.2,173,311,173L311,173z M311,173"/>
	<path fill="#FFFFFF" d="M294.3,125.1c-1.9,0-3.5-1.3-3.9-3.2c-3.7-18.5-12.2-35.7-24.6-49.7c-12.4-14.1-28.5-24.7-46.4-30.7l-0.1,0
		c-26-8.7-53.9-7.2-78.7,4.1c-2,0.9-4.4,0-5.3-2c-0.9-2,0-4.4,2-5.3c26.6-12.2,56.6-13.8,84.5-4.5l0.1,0c19.3,6.5,36.6,17.9,49.9,33
		c13.3,15.1,22.4,33.5,26.4,53.4c0.4,2.2-1,4.3-3.1,4.7C294.8,125,294.5,125.1,294.3,125.1L294.3,125.1z M294.3,125.1"/>
	<path fill="#FFFFFF" d="M84.6,84.9c-1.4,0-2.8-0.7-3.5-2c-1.1-1.9-0.4-4.4,1.5-5.4c7.8-4.4,14.9-9.8,21.3-16.1
		c5.7-5.6,12-10.7,18.6-15c1.9-1.2,4.3-0.7,5.5,1.2c1.2,1.9,0.7,4.3-1.2,5.5c-6.2,4-12.1,8.8-17.4,14c-6.9,6.8-14.6,12.7-23,17.4
		C86,84.8,85.3,84.9,84.6,84.9L84.6,84.9z M84.6,84.9"/>
	<path fill="#FFFFFF" d="M105.7,104.2c-0.4,0-0.9-0.1-1.3-0.2L68,91.7c-2.1-0.7-3.2-3-2.5-5.1c0.7-2.1,3-3.2,5.1-2.5L107,96.4
		c2.1,0.7,3.2,3,2.5,5.1C109,103.1,107.4,104.2,105.7,104.2L105.7,104.2z M105.7,104.2"/>
	<path fill="#FFFFFF" d="M129.2,112.1c-0.4,0-0.9-0.1-1.3-0.2l-10.4-3.5c-2.1-0.7-3.2-3-2.5-5.1c0.7-2.1,3-3.2,5.1-2.5l10.4,3.5
		c2.1,0.7,3.2,3,2.5,5.1C132.4,111,130.9,112.1,129.2,112.1L129.2,112.1z M129.2,112.1"/>
	<path fill="#FFFFFF" d="M257,154.9c-0.4,0-0.9-0.1-1.3-0.2l-112.1-37.6c-2.1-0.7-3.2-3-2.5-5.1c0.7-2.1,3-3.2,5.1-2.5l112.1,37.6
		c2.1,0.7,3.2,3,2.5,5.1C260.2,153.9,258.7,154.9,257,154.9L257,154.9z M257,154.9"/>
	<path fill="#FFFFFF" d="M110.8,213.3c-1.1,0-2.2-0.5-3-1.4c-19.7-22.3-29-51.9-25.4-81.3c0.3-2.2,2.3-3.8,4.5-3.5
		c2.2,0.3,3.8,2.3,3.5,4.5c-3.3,27.1,5.2,54.4,23.5,75c1.5,1.7,1.3,4.2-0.3,5.6C112.7,212.9,111.8,213.3,110.8,213.3L110.8,213.3z
		 M110.8,213.3"/>
	<path fill="#FFFFFF" d="M130.3,230.2c-0.8,0-1.5-0.2-2.2-0.7c-1.9-1.2-3.7-2.6-5.5-3.9c-1.8-1.3-2.1-3.8-0.8-5.6
		c1.3-1.8,3.8-2.1,5.6-0.8c1.6,1.3,3.4,2.5,5.1,3.6c1.8,1.2,2.3,3.7,1.1,5.5C132.8,229.5,131.6,230.2,130.3,230.2L130.3,230.2z
		 M130.3,230.2"/>
	<path fill="#FFFFFF" d="M185.2,246.7c-11,0-22-1.8-32.8-5.3l-0.1,0c-3-1-5.9-2.1-8.7-3.4c-2-0.9-2.9-3.2-2.1-5.3
		c0.9-2,3.2-2.9,5.3-2.1c2.6,1.1,5.3,2.2,8,3.1l0.1,0c33.6,11.2,70.5,3,96.3-21.6c1.6-1.5,4.1-1.5,5.7,0.1c1.5,1.6,1.5,4.1-0.1,5.7
		C237.1,236.7,211.4,246.7,185.2,246.7L185.2,246.7z M185.2,246.7"/>
	<path fill="#FFFFFF" d="M265.6,205.8c-0.8,0-1.6-0.3-2.4-0.8c-1.8-1.3-2.2-3.8-0.9-5.6c2.3-3.1,4.3-6.3,6.2-9.7
		c1.1-1.9,3.5-2.6,5.4-1.5c1.9,1.1,2.6,3.5,1.5,5.4c-2,3.6-4.3,7.1-6.7,10.5C268.1,205.3,266.9,205.8,265.6,205.8L265.6,205.8z
		 M265.6,205.8"/>
	<path fill="#333333" d="M317.6,191.6c-0.3,0-0.5,0-0.8-0.1c-0.3-0.1-0.5-0.1-0.7-0.2c-0.2-0.1-0.5-0.2-0.7-0.4
		c-0.2-0.1-0.4-0.3-0.6-0.5c-0.7-0.7-1.2-1.8-1.2-2.8c0-0.3,0-0.5,0.1-0.8c0-0.3,0.1-0.5,0.2-0.8c0.1-0.2,0.2-0.5,0.4-0.7
		c0.1-0.2,0.3-0.4,0.5-0.6c0.2-0.2,0.4-0.4,0.6-0.5c0.2-0.2,0.5-0.3,0.7-0.4c0.2-0.1,0.5-0.2,0.7-0.2c0.5-0.1,1.1-0.1,1.6,0
		c0.3,0,0.5,0.1,0.7,0.2c0.2,0.1,0.5,0.2,0.7,0.4c0.2,0.1,0.4,0.3,0.6,0.5c0.2,0.2,0.4,0.4,0.5,0.6c0.1,0.2,0.3,0.5,0.4,0.7
		c0.1,0.2,0.2,0.5,0.2,0.8c0.1,0.3,0.1,0.5,0.1,0.8c0,1.1-0.4,2.1-1.2,2.8C319.7,191.2,318.7,191.6,317.6,191.6L317.6,191.6z
		 M317.6,191.6"/>
	<path fill="#FFFFFF" d="M317.3,175.1c-0.4,0-0.8-0.1-1.3-0.2l-6.3-2.1c-2.1-0.7-3.2-3-2.5-5.1c0.7-2.1,3-3.2,5.1-2.5l6.3,2.1
		c2.1,0.7,3.2,3,2.5,5.1C320.5,174.1,319,175.1,317.3,175.1L317.3,175.1z M317.3,175.1"/>
	<path fill="#FFFFFF" d="M67.7,91.5c-0.4,0-0.8-0.1-1.3-0.2l-6.3-2.1c-2.1-0.7-3.2-3-2.5-5.1c0.7-2.1,3-3.2,5.1-2.5l6.3,2.1
		c2.1,0.7,3.2,3,2.5,5.1C70.9,90.4,69.4,91.5,67.7,91.5L67.7,91.5z M67.7,91.5"/>
</g>
<g>
	<path fill="#20505B" d="M351.6,231.7c0,9.2-7.5,16.7-16.7,16.7c-9.2,0-16.7-7.5-16.7-16.7c0-9.2,7.5-16.7,16.7-16.7
		C344.1,215,351.6,222.5,351.6,231.7L351.6,231.7z M351.6,231.7"/>
	<path fill="#333333" d="M334.8,253.4c-11.9,0-21.7-9.7-21.7-21.7c0-11.9,9.7-21.7,21.7-21.7c11.9,0,21.7,9.7,21.7,21.7
		C356.5,243.7,346.8,253.4,334.8,253.4L334.8,253.4z M334.8,219.9c-6.5,0-11.8,5.3-11.8,11.8c0,6.5,5.3,11.8,11.8,11.8
		c6.5,0,11.8-5.3,11.8-11.8C346.6,225.2,341.4,219.9,334.8,219.9L334.8,219.9z M334.8,219.9"/>
</g>
<g>
	<path fill="#FCBC1D" d="M25,49.1c-4.2,0-7.5-3.4-7.5-7.5V9.3c0-4.2,3.4-7.5,7.5-7.5c4.2,0,7.5,3.4,7.5,7.5v32.3
		C32.5,45.7,29.1,49.1,25,49.1L25,49.1z M25,49.1"/>
	<path fill="#FCBC1D" d="M41.1,32.9H8.8c-4.2,0-7.5-3.4-7.5-7.5c0-4.2,3.4-7.5,7.5-7.5h32.3c4.2,0,7.5,3.4,7.5,7.5
		C48.6,29.6,45.2,32.9,41.1,32.9L41.1,32.9z M41.1,32.9"/>
</g>
<g>
	<path fill="#FCBC1D" d="M290.6,241.5c3.2,0,5.7,2.6,5.7,5.7v24.5c0,3.2-2.6,5.7-5.7,5.7c-3.2,0-5.7-2.6-5.7-5.7v-24.5
		C284.9,244,287.4,241.5,290.6,241.5L290.6,241.5z M290.6,241.5"/>
	<path fill="#FCBC1D" d="M278.3,253.7h24.5c3.2,0,5.7,2.6,5.7,5.7c0,3.2-2.6,5.7-5.7,5.7h-24.5c-3.2,0-5.7-2.6-5.7-5.7
		C272.6,256.3,275.2,253.7,278.3,253.7L278.3,253.7z M278.3,253.7"/>
</g>
</svg>
